<svg xmlns="http://www.w3.org/2000/svg" xml:space="preserve" viewBox="0 0 1080 1080"><path fill="#0146DC" d="M565.468 1058.492c-99.37 12.014-191.333-51.065-212.695-148.503-16.276-74.236 4.858-138.326 61.7-189.642 22.52-20.33 49.02-33.624 78.33-41.205 3.528-.912 4.433-2.186 4.412-5.618-.14-23.33-.074-46.66-.074-69.99 0-67.324-.037-134.648.093-201.972.008-4.014-1.006-5.454-5.06-6.65-75.35-22.243-124.21-71.196-140.146-148.17-14.996-72.43 6.618-135.226 62.163-184.808 38.236-34.132 84.046-49.978 135.034-47.607 54.924 2.554 101.25 24.947 137.736 66.53 25.636 29.217 41.508 63.248 45.792 101.803 7.448 67.04-13.355 124.164-63.496 169.85-22.662 20.648-49.205 34.556-78.876 42.253-4.353 1.129-5.65 2.694-5.64 7.233.165 76.156.118 152.312.118 228.469 0 14.498.062 28.996-.054 43.493-.023 2.935.74 4.155 3.84 5.06 78.73 22.979 128.511 74.348 142.686 155.083 19.182 109.25-53.79 200.13-147.722 221.151-5.842 1.308-11.796 2.115-18.141 3.24m-24.004-952.21c-16.076.081-31.31 3.663-45.746 10.78-45.662 22.508-67.501 76.902-50.14 125.005 17.47 48.408 69.1 76.399 118.763 64.388 49.517-11.976 83.06-59.009 77.58-108.78-5.693-51.697-47.905-90.459-100.457-91.393m7.611 861.423c1.647-.244 3.29-.525 4.942-.726 47.134-5.744 84.904-45.43 88.082-92.558 4.368-64.797-49.599-116.037-114.13-108.363-61.228 7.28-102.13 70.026-84.19 129.15 13.93 45.913 55.168 74.584 105.296 72.497z"/></svg>